<?xml version="1.0" standalone="no"?>
<!DOCTYPE svg PUBLIC "-//W3C//DTD SVG 20010904//EN"
 "http://www.w3.org/TR/2001/REC-SVG-20010904/DTD/svg10.dtd">
<svg version="1.0" xmlns="http://www.w3.org/2000/svg"
 width="1024.000000pt" height="1024.000000pt" viewBox="0 0 1024.000000 1024.000000"
 preserveAspectRatio="xMidYMid meet">

<g transform="translate(0.000000,1024.000000) scale(0.100000,-0.100000)"
fill="#000000" stroke="none">
<path d="M3795 9579 c-506 -53 -966 -401 -1130 -856 -36 -100 -65 -236 -65
-308 0 -40 -6 -73 -19 -95 -10 -19 -32 -60 -49 -90 -16 -30 -38 -88 -47 -128
-15 -61 -23 -75 -49 -92 -42 -26 -256 -244 -353 -360 -403 -482 -701 -1049
-861 -1635 -111 -404 -146 -681 -145 -1130 0 -244 5 -332 22 -470 24 -189 71
-441 103 -554 19 -64 20 -81 11 -135 -88 -484 -120 -675 -155 -911 -39 -260
-42 -295 -41 -490 0 -185 2 -220 22 -290 70 -256 230 -434 441 -490 65 -17
231 -20 316 -4 134 24 318 91 504 184 101 51 298 165 356 207 l41 29 79 -47
c235 -140 501 -268 719 -347 392 -141 659 -205 1090 -261 120 -16 502 -27 800
-25 365 4 548 -5 925 -47 124 -13 308 -33 410 -44 102 -11 262 -28 355 -39
179 -21 427 -49 710 -81 94 -10 251 -27 350 -36 l181 -18 129 46 c72 26 200
70 285 98 280 93 461 181 479 230 13 39 -22 1396 -44 1685 -3 39 -12 284 -20
545 -8 261 -22 606 -30 765 -8 160 -17 369 -20 465 -3 96 -8 229 -13 295 -4
66 -6 181 -5 255 1 74 2 175 3 223 3 232 -129 663 -328 1077 -207 428 -441
771 -720 1053 -424 428 -812 718 -1232 920 -369 177 -659 271 -1040 336 -157
27 -469 51 -660 51 l-158 0 -67 41 c-38 23 -98 48 -136 57 -64 16 -68 19 -78
54 -14 47 -85 142 -143 193 -64 56 -183 122 -262 145 -127 36 -292 47 -461 29z
m420 -133 c159 -47 266 -130 326 -251 31 -64 36 -107 5 -46 -22 42 -107 125
-161 157 -114 66 -285 100 -464 91 -427 -22 -827 -279 -1053 -677 -14 -25 -29
-56 -33 -70 -13 -43 -86 -184 -108 -207 -45 -49 -45 -18 0 142 106 376 337
634 714 796 183 79 291 99 519 95 144 -3 177 -7 255 -30z m-6 -262 c99 -23 99
-24 77 -36 -10 -5 -66 -10 -125 -9 -58 1 -146 -5 -196 -14 -100 -17 -321 -89
-403 -130 -28 -14 -82 -37 -120 -50 l-67 -24 54 49 c88 80 302 179 466 215 84
18 236 18 314 -1z m576 -162 c59 -30 166 -145 220 -237 100 -168 142 -356 132
-579 -11 -210 -25 -230 -26 -36 -1 193 -10 261 -52 390 -62 191 -143 307 -301
433 -72 57 -58 72 27 29z m-441 -92 c21 -4 43 -15 47 -22 5 -7 9 -9 9 -5 0 4
6 2 14 -5 8 -7 12 -17 9 -22 -3 -4 -9 -2 -14 5 -5 8 -9 9 -9 3 0 -8 -39 -14
-107 -19 -67 -4 -136 -16 -183 -31 -79 -25 -217 -99 -295 -159 -89 -68 -102
-28 -20 63 27 30 126 102 141 102 3 0 18 8 32 18 38 26 126 62 175 72 58 11
154 11 201 0z m1266 -115 c544 -68 1187 -325 1615 -644 314 -235 596 -493 799
-731 189 -222 398 -545 526 -813 91 -191 210 -492 259 -657 39 -132 67 -258
58 -266 -2 -3 -24 4 -48 14 -69 30 -141 42 -249 42 l-99 0 -6 38 c-28 161 -78
269 -177 377 -80 87 -134 110 -258 110 -105 -1 -131 -10 -208 -73 -32 -25
-125 -147 -137 -179 -1 -1 -23 9 -50 22 -35 18 -65 25 -105 25 -38 0 -62 5
-70 15 -17 21 -115 55 -159 55 -20 0 -59 -7 -85 -16 -45 -15 -51 -15 -82 0
-43 20 -125 21 -190 1 -44 -13 -49 -13 -58 2 -27 49 -72 83 -117 89 -43 6 -49
4 -86 -30 -48 -43 -68 -101 -61 -180 l5 -55 -49 82 c-89 149 -177 217 -306
237 -88 14 -155 2 -227 -39 -142 -82 -241 -237 -267 -421 -9 -57 -16 -80 -26
-80 -8 0 -120 36 -249 80 -227 77 -363 133 -363 149 0 4 29 31 65 60 130 106
209 223 236 348 17 82 6 242 -22 322 -24 70 -92 177 -167 262 -75 86 -89 109
-116 191 -49 144 -44 243 20 468 48 171 95 447 99 580 4 191 -35 404 -101 549
-19 41 -34 75 -34 77 0 18 314 11 490 -11z m-1216 -125 c16 -6 35 -29 51 -60
14 -28 63 -108 109 -178 86 -131 132 -226 182 -372 27 -79 29 -95 28 -225 -2
-208 -60 -512 -133 -701 -138 -355 -523 -685 -801 -684 -69 0 -202 45 -273 93
-73 48 -237 206 -297 285 -162 214 -240 510 -240 918 0 240 -4 229 94 275 112
52 160 62 269 57 70 -3 114 -12 182 -36 110 -39 135 -41 135 -8 0 58 -129 119
-252 120 -81 1 -82 4 -1 41 57 26 248 152 438 288 128 92 223 147 308 177 57
20 161 26 201 10z m-1495 -202 c-15 -28 -27 -46 -122 -179 -42 -58 -90 -134
-107 -170 -30 -64 -39 -106 -20 -94 6 4 10 -13 10 -44 0 -31 6 -55 15 -65 12
-12 13 -20 5 -35 -6 -11 -16 -46 -24 -78 l-14 -58 -15 35 c-8 19 -20 97 -27
172 l-13 137 27 55 c39 80 108 169 204 264 47 45 86 82 88 82 3 0 -1 -10 -7
-22z m16 -715 c8 -121 23 -284 31 -341 8 -56 -10 -50 -56 21 -50 76 -82 163
-88 237 l-4 65 47 58 c26 31 51 57 55 57 5 0 11 -44 15 -97z m-370 5 c4 -18
23 -63 41 -99 56 -113 68 -249 34 -402 -25 -115 -51 -159 -182 -319 -125 -152
-148 -188 -178 -276 -26 -81 -29 -238 -5 -327 43 -160 120 -265 277 -376 23
-16 22 -16 -39 -48 -34 -17 -126 -58 -205 -92 -241 -104 -497 -226 -563 -269
-131 -85 -189 -174 -238 -365 -30 -112 -101 -445 -143 -667 -16 -82 -31 -148
-35 -148 -9 0 -16 42 -30 180 -13 130 -6 603 11 735 87 672 309 1272 673 1820
111 168 222 318 323 439 103 123 224 246 242 246 6 0 14 -15 17 -32z m2364
-163 c9 -67 -6 -147 -39 -199 -21 -34 -88 -102 -93 -95 -2 2 16 101 39 219 24
118 44 217 44 220 2 22 43 -97 49 -145z m-1914 -466 c14 -63 -41 -117 -89 -85
-63 40 -70 120 -16 171 17 16 30 36 30 44 0 21 67 -96 75 -130z m1843 31 c40
-59 12 -140 -49 -140 -76 0 -93 107 -25 162 29 24 46 19 74 -22z m-2127 -47
c-18 -71 -51 -127 -161 -276 -56 -76 -110 -157 -120 -180 -24 -56 -44 -188
-36 -234 4 -21 10 -65 13 -98 2 -33 9 -78 13 -100 l9 -40 -25 30 c-43 52 -69
156 -68 270 2 157 38 231 217 445 55 65 111 144 130 181 35 73 46 74 28 2z
m2363 -95 c14 -23 63 -92 107 -153 95 -129 122 -183 143 -287 19 -90 20 -144
6 -218 -10 -54 -56 -167 -65 -159 -11 11 14 171 29 188 20 23 20 38 -4 136
-25 99 -92 238 -160 330 -74 100 -97 142 -114 210 -25 92 -20 121 8 53 13 -31
35 -76 50 -100z m-1604 -530 c41 -30 93 -64 115 -77 53 -31 175 -61 244 -61
161 1 344 81 492 217 l26 24 7 -223 c7 -235 2 -307 -35 -451 -40 -158 -115
-318 -256 -546 -36 -58 -101 -166 -144 -240 l-78 -133 -20 33 c-12 19 -21 38
-21 42 0 5 -35 66 -78 135 -218 351 -320 556 -370 740 -23 87 -26 115 -26 277
0 99 3 224 8 278 l8 99 27 -30 c14 -17 60 -55 101 -84z m-239 -192 c-19 -247
22 -443 144 -686 57 -114 228 -409 309 -534 91 -141 158 -264 184 -341 18 -53
21 -92 26 -332 4 -239 3 -273 -10 -273 -9 0 -61 12 -117 26 -110 28 -166 32
-210 15 -18 -7 -32 -7 -40 -1 -69 55 -66 50 -132 265 -81 261 -108 360 -145
537 -33 153 -70 373 -70 414 0 26 0 26 68 -22 37 -26 114 -86 172 -133 120
-98 211 -163 218 -157 11 11 -126 181 -213 265 -167 159 -232 190 -353 165
-66 -14 -181 -69 -249 -121 l-43 -33 0 34 c0 103 104 473 184 655 72 164 112
226 197 313 44 44 82 78 85 75 3 -3 1 -62 -5 -131z m1290 67 c177 -186 268
-389 380 -848 42 -175 41 -179 -46 -115 -101 76 -161 101 -254 107 -69 5 -85
3 -134 -20 -72 -33 -132 -78 -231 -175 -70 -69 -166 -194 -183 -239 -4 -9 40
21 98 68 205 167 363 279 375 266 11 -11 -130 -716 -191 -957 -29 -113 -98
-353 -114 -393 l-11 -29 -29 25 c-28 23 -72 39 -156 55 l-40 8 -6 104 c-4 58
-7 197 -8 310 -2 202 -2 206 -31 280 -17 41 -30 82 -30 91 0 8 28 63 63 122
368 626 386 663 443 882 27 104 29 121 29 318 0 114 2 207 6 207 3 0 35 -30
70 -67z m1801 -220 c49 -20 149 -130 187 -205 26 -51 61 -192 50 -202 -2 -2
-27 -6 -56 -8 l-51 -5 -11 56 c-14 70 -58 147 -122 214 -27 28 -49 52 -49 54
0 2 9 3 19 3 11 0 23 5 26 10 11 17 -77 11 -120 -9 -136 -62 -213 -259 -187
-476 16 -126 52 -203 136 -293 30 -32 30 -34 12 -48 -30 -22 -69 -17 -112 15
-124 89 -196 275 -180 466 16 188 80 324 187 400 74 52 183 63 271 28z m1787
10 c98 -31 209 -180 240 -323 7 -30 15 -63 18 -72 4 -16 -3 -18 -56 -18 l-60
0 -11 43 c-24 95 -76 194 -117 227 -29 23 -29 22 12 36 35 11 36 28 1 32 -73
9 -177 -60 -222 -149 -60 -119 -72 -357 -24 -484 29 -77 65 -134 101 -163 36
-29 36 -38 -1 -57 -46 -24 -67 -18 -119 30 -95 89 -154 250 -154 420 1 259 98
437 263 481 61 17 70 17 129 -3z m-1310 -58 c17 -20 31 -38 31 -40 0 -3 -14
-30 -31 -59 -16 -30 -47 -101 -67 -157 -20 -56 -43 -104 -49 -107 -10 -3 -13
23 -15 105 -3 155 0 182 27 241 30 65 57 70 104 17z m296 -64 c3 -5 -8 -31
-24 -56 -68 -108 -121 -326 -137 -564 -5 -82 -11 -108 -25 -122 -25 -25 -43
-24 -72 4 -37 33 -48 79 -54 217 -5 108 -3 137 17 214 25 102 71 219 96 247
43 48 180 89 199 60z m269 -6 c20 -8 36 -20 36 -25 0 -5 -15 -29 -32 -53 -80
-105 -137 -281 -168 -522 -13 -100 -37 -153 -80 -178 -48 -28 -66 -22 -85 28
-14 36 -16 62 -11 137 25 324 76 499 171 587 38 35 51 41 89 41 24 0 60 -7 80
-15z m234 -75 c36 -17 42 -23 42 -51 0 -23 -9 -40 -33 -63 -54 -50 -77 -91
-108 -187 -43 -134 -113 -239 -159 -239 -27 0 -50 38 -50 81 0 61 57 269 95
346 28 56 45 78 82 102 54 36 73 38 131 11z m-4798 -20 c-6 -12 -14 -20 -17
-17 -2 3 1 14 8 26 17 26 24 19 9 -9z m3478 -35 c38 -44 72 -117 72 -157 0
-16 -11 -18 -131 -18 l-131 0 7 33 c10 44 68 168 89 189 22 23 41 13 94 -47z
m1837 -49 c48 -100 49 -111 5 -110 -19 1 -65 2 -102 3 l-66 1 13 48 c16 63 42
122 62 144 15 17 17 17 35 1 10 -9 34 -49 53 -87z m-5525 -41 c-25 -65 -51
-105 -70 -105 -30 0 -484 -236 -650 -337 -62 -38 -65 -41 -62 -74 4 -35 46
-172 76 -244 19 -47 17 -45 -76 84 -50 70 -62 81 -73 70 -27 -27 -108 -358
-166 -674 -44 -241 -83 -467 -130 -755 -44 -271 -101 -485 -152 -570 l-21 -35
23 20 c13 11 47 42 75 68 55 52 220 167 239 167 6 0 -18 -30 -54 -67 -204
-209 -254 -302 -303 -563 -9 -46 -36 -159 -61 -250 -24 -91 -47 -183 -52 -205
-7 -33 -8 -24 -11 57 -2 63 4 142 17 220 11 68 27 179 36 248 9 69 24 163 35
210 10 47 21 114 25 150 3 35 19 127 35 205 16 77 40 217 55 310 32 206 66
404 100 585 14 74 37 200 51 280 42 238 105 530 131 615 45 142 68 173 183
242 60 36 305 152 524 249 49 21 128 58 175 81 103 50 114 52 101 18z m2568
-9 c63 -32 268 -116 284 -116 7 -1 26 -7 42 -13 l30 -13 -38 -29 c-24 -18 -40
-25 -44 -18 -4 6 -63 36 -132 67 -152 70 -165 78 -185 116 -19 36 -17 36 43 6z
m3480 -208 c22 -15 54 -49 69 -75 26 -44 28 -56 27 -143 -1 -52 -11 -158 -24
-235 -12 -77 -25 -154 -27 -172 -5 -31 -6 -32 -72 -39 -63 -7 -2958 -12 -3148
-5 -76 3 -93 6 -93 19 0 38 74 366 102 448 16 51 43 107 59 127 41 50 120 87
186 87 l53 0 0 -33 c0 -80 64 -227 145 -335 86 -114 148 -144 239 -118 89 26
150 105 162 208 4 43 1 61 -18 98 -29 56 -78 90 -129 90 -42 0 -52 11 -62 68
l-6 32 289 0 290 0 0 -76 c0 -146 53 -287 120 -321 14 -7 54 -13 90 -13 51 0
73 -5 105 -25 46 -28 117 -33 169 -11 44 19 101 70 116 105 9 23 22 32 57 40
25 7 69 30 99 51 43 33 63 58 104 134 66 123 76 130 83 66 14 -117 104 -312
185 -402 66 -73 121 -85 207 -44 123 57 181 197 127 303 -25 48 -65 79 -124
96 -41 12 -43 15 -46 55 l-3 41 113 4 c62 2 203 3 314 3 l201 -1 41 -27z m258
-178 c14 -46 16 -85 11 -235 -8 -240 -31 -427 -96 -775 -16 -85 -32 -177 -36
-205 -3 -27 -21 -153 -40 -280 -19 -126 -52 -354 -75 -505 -129 -871 -218
-1395 -281 -1645 -39 -158 -49 -210 -44 -246 12 -85 -29 -315 -63 -352 -15
-17 -26 -19 -106 -13 -106 7 -424 40 -591 61 -66 9 -208 25 -315 35 -107 11
-269 29 -360 40 -91 11 -212 24 -270 30 -58 5 -208 21 -335 34 -126 13 -268
27 -315 31 -192 13 -449 36 -505 45 -33 5 -118 14 -190 20 -188 16 -288 29
-298 39 -9 9 -59 152 -55 156 2 2 28 -1 58 -6 86 -14 335 -38 565 -54 116 -8
314 -24 440 -35 127 -11 293 -25 370 -31 171 -12 508 -46 590 -59 33 -5 148
-16 255 -25 107 -9 249 -23 315 -31 198 -25 323 -29 343 -12 9 8 40 23 67 32
28 10 67 29 87 42 44 28 116 127 158 216 31 67 91 316 130 546 11 67 30 166
40 219 11 53 34 180 50 282 17 102 48 283 70 401 21 119 51 285 64 370 14 85
44 254 66 375 22 121 56 308 74 415 19 107 44 233 55 280 11 47 32 159 45 250
14 91 39 244 55 340 32 183 38 262 21 320 l-10 35 20 -25 c11 -14 27 -50 36
-80z m-2694 -17 c13 -12 18 -30 18 -70 0 -29 -4 -53 -10 -53 -5 0 -10 8 -10
19 0 10 -7 35 -15 54 -26 61 -19 82 17 50z m1850 0 c20 -18 24 -78 8 -103 -8
-12 -10 -10 -10 10 0 14 -9 44 -20 68 -20 44 -11 55 22 25z m-3377 -146 c-3
-6 -11 -44 -18 -84 l-14 -72 81 -39 c127 -62 445 -296 446 -328 0 -30 -70 7
-197 103 -161 122 -323 236 -328 231 -1 -1 -12 -55 -24 -118 -58 -312 -131
-596 -244 -947 -44 -138 -52 -149 -91 -120 -17 12 -17 16 -4 43 24 47 93 265
142 449 25 94 79 340 121 548 41 208 78 383 81 389 9 15 55 -38 49 -55z
m-1591 -47 c9 -41 35 -160 57 -265 33 -151 143 -582 164 -643 5 -14 -36 5 -70
33 -20 16 -20 16 2 6 33 -16 34 -14 13 22 -27 44 -125 350 -149 467 -11 52
-29 128 -39 168 -16 64 -20 71 -32 57 -14 -17 -212 -159 -351 -253 -83 -56
-119 -93 -119 -125 0 -19 -2 -18 -30 8 -16 16 -30 34 -30 40 0 23 92 98 242
197 235 154 261 169 282 164 17 -4 18 0 12 37 -19 125 -19 157 0 172 24 17 27
12 48 -85z m-351 -67 c-7 -2 -19 -2 -25 0 -7 3 -2 5 12 5 14 0 19 -2 13 -5z
m5929 -345 c-2 -18 -16 -100 -32 -183 -16 -82 -39 -206 -50 -275 -11 -69 -34
-195 -50 -280 -50 -270 -114 -631 -151 -855 -11 -66 -38 -217 -60 -335 -73
-399 -98 -535 -104 -580 -11 -70 -74 -388 -91 -455 -31 -120 -119 -250 -196
-291 -66 -34 -139 -45 -243 -34 -55 5 -206 19 -335 30 -129 11 -296 26 -370
34 -74 8 -184 19 -245 25 -60 6 -153 16 -205 21 -52 5 -167 14 -255 20 -88 5
-212 14 -275 20 -63 5 -146 12 -185 15 -548 41 -831 67 -882 81 -64 18 -135
86 -157 152 -24 70 -20 142 23 364 53 270 153 716 187 828 l27 90 84 0 c94 0
81 11 120 -105 12 -33 24 -68 28 -77 6 -16 1 -18 -44 -18 -58 0 -70 -19 -13
-22 83 -4 100 -7 161 -33 92 -39 150 -42 242 -12 63 20 90 23 157 19 69 -4 82
-7 82 -22 0 -9 -18 -97 -39 -196 -22 -98 -45 -208 -53 -244 l-14 -65 -94 2
c-52 2 -187 8 -300 15 -283 17 -304 17 -308 -4 -3 -13 7 -17 50 -22 79 -8 354
-25 511 -32 117 -5 137 -8 133 -21 -6 -14 -96 -456 -96 -468 0 -3 9 -5 20 -5
11 0 20 3 20 6 0 5 31 149 81 382 20 88 22 92 47 92 34 0 480 -27 590 -36 l84
-7 -7 -46 c-4 -25 -22 -118 -42 -206 -51 -238 -51 -235 -19 -235 19 0 26 5 26
20 0 32 81 433 92 453 7 14 18 17 56 12 26 -3 184 -12 352 -21 167 -8 306 -17
309 -20 3 -3 -18 -118 -46 -257 -27 -139 -50 -253 -49 -253 0 -1 10 -4 22 -8
19 -6 22 1 37 81 29 155 86 426 91 431 5 4 289 -14 361 -23 17 -2 103 -7 193
-11 160 -7 162 -6 162 14 0 24 -19 28 -195 37 -153 8 -508 34 -511 38 -3 3 50
292 82 445 l17 82 90 0 c50 0 207 -7 350 -16 143 -8 260 -14 262 -12 1 2 6 13
9 26 7 21 6 22 -69 22 -82 0 -628 30 -633 35 -5 5 99 510 106 516 4 3 89 2
189 -2 100 -4 255 -8 345 -10 158 -4 163 -3 163 16 0 19 -9 20 -170 26 -317
12 -503 22 -513 28 -8 5 40 280 84 479 5 24 5 24 127 18 67 -3 223 -7 347 -8
222 -3 225 -3 228 18 3 21 2 21 -338 26 -187 3 -343 8 -346 11 -3 3 13 97 35
209 48 246 56 304 43 312 -17 10 -50 -107 -87 -309 -19 -104 -35 -194 -35
-199 0 -10 -707 -2 -717 8 -3 3 13 99 35 213 46 235 51 274 36 280 -13 4 -47
-111 -69 -232 -9 -49 -26 -129 -37 -177 l-19 -87 -142 -3 c-154 -4 -546 8
-554 16 -6 5 15 128 47 281 30 149 34 195 17 195 -17 0 -27 -38 -72 -270 -14
-74 -30 -152 -36 -172 l-10 -38 -344 0 c-328 0 -375 -4 -350 -28 4 -4 157 -9
340 -12 183 -3 336 -7 338 -10 5 -4 -61 -385 -78 -451 -6 -25 -11 -26 -108
-37 l-102 -11 -41 29 c-58 41 -121 54 -207 40 -85 -13 -109 -25 -182 -91 -61
-57 -115 -139 -115 -179 0 -22 -8 -16 -74 49 -105 105 -103 98 -72 233 35 153
95 446 161 783 30 154 66 318 81 365 14 47 27 90 29 95 1 7 564 9 1666 8
l1664 -3 -3 -32z m-6196 -199 c19 -11 34 -23 34 -26 0 -20 -86 -183 -97 -183
-19 0 -90 49 -97 67 -11 27 15 96 49 130 38 38 64 41 111 12z m300 -150 c93
-44 187 -88 209 -97 22 -8 42 -17 44 -18 4 -4 -70 -128 -98 -164 -19 -23 -21
-24 -58 -11 -74 25 -344 162 -350 177 -8 22 60 194 77 194 4 0 84 -36 176 -81z
m6208 -189 c9 -140 20 -374 26 -520 5 -146 15 -348 20 -450 13 -234 27 -637
40 -1085 5 -192 13 -385 16 -427 3 -43 3 -110 -1 -149 l-7 -71 -37 35 c-48 47
-326 239 -399 276 -97 49 -97 49 -78 188 9 65 25 156 36 203 10 47 26 135 34
195 9 61 18 121 21 135 19 91 46 249 55 325 6 50 22 153 35 230 13 77 31 201
40 275 14 122 25 193 70 485 8 50 17 113 20 140 24 182 81 483 90 473 2 -2 11
-118 19 -258z m-6755 28 c1 -62 6 -142 11 -178 13 -87 13 -231 0 -209 -11 20
-36 230 -46 387 -7 108 -6 112 14 112 19 0 20 -6 21 -112z m224 -10 c44 -75
49 -78 296 -188 51 -22 125 -48 163 -57 54 -12 68 -19 66 -32 -9 -48 -187 -4
-403 99 -126 61 -185 117 -185 180 0 56 29 55 63 -2z m816 -66 c80 -37 146
-72 148 -79 3 -7 -8 -15 -24 -19 -48 -11 -136 -44 -181 -69 l-42 -24 -76 35
c-41 19 -74 39 -72 43 33 81 85 181 93 180 5 0 75 -30 154 -67z m425 -122 c31
-10 126 -31 209 -45 179 -30 215 -38 245 -54 43 -23 27 -51 -52 -87 -57 -26
-63 -27 -180 -20 -67 3 -158 13 -204 21 -72 12 -87 12 -124 -1 -23 -8 -46 -18
-52 -23 -6 -5 -46 -23 -88 -40 -140 -55 -289 -134 -277 -145 2 -2 47 7 99 20
130 34 338 67 377 60 85 -13 361 -172 471 -271 54 -49 65 -78 34 -94 -29 -15
-80 1 -198 64 -254 136 -262 138 -390 120 -147 -20 -322 -76 -313 -100 4 -11
11 -10 154 10 55 8 141 17 190 21 l90 6 97 -50 c125 -65 277 -169 291 -199 13
-28 -5 -53 -39 -53 -26 0 -113 31 -229 84 -44 19 -99 38 -121 42 -66 10 -374
-56 -374 -80 0 -5 54 -6 138 0 200 12 219 11 297 -20 95 -39 215 -107 215
-123 0 -7 -10 -23 -21 -34 -19 -19 -29 -21 -88 -16 -36 3 -95 15 -131 26 -82
26 -131 26 -211 1 -83 -25 -152 -70 -167 -106 -6 -16 -18 -69 -27 -119 -19
-112 -54 -186 -121 -250 -49 -48 -215 -145 -246 -145 -27 0 -138 123 -168 185
-68 142 -62 277 16 380 29 39 72 184 123 425 65 300 73 324 124 358 73 50 359
198 427 222 36 13 79 29 95 36 41 18 63 17 129 -6z m3102 -94 c13 -5 8 -47
-42 -301 -19 -98 -39 -184 -44 -189 -6 -6 -134 -5 -352 3 -189 7 -344 14 -345
14 -2 2 86 447 92 467 4 13 49 15 342 12 186 -1 343 -4 349 -6z m773 -12 c5
-4 -18 -131 -63 -353 l-31 -154 -155 2 c-206 3 -549 17 -554 22 -7 7 42 270
89 476 l5 22 353 -6 c193 -3 354 -7 356 -9z m-3293 -205 c254 -117 314 -151
314 -176 0 -25 -59 -163 -69 -163 -4 0 -11 4 -16 9 -6 5 -62 32 -125 61 -156
71 -316 152 -381 192 -30 19 -84 50 -121 68 -37 19 -65 36 -64 37 2 2 27 -2
57 -8 66 -14 202 -7 249 14 19 8 38 16 41 16 3 1 55 -22 115 -50z m571 -286
c22 -14 22 -16 7 -51 -9 -21 -20 -51 -25 -69 -6 -18 -14 -35 -19 -38 -4 -3
-50 12 -100 32 -68 28 -90 41 -86 53 2 8 14 42 26 75 11 33 23 66 25 73 3 9
25 2 77 -24 40 -20 83 -43 95 -51z m813 -18 c66 -34 111 -113 118 -206 4 -61
2 -72 -28 -128 -116 -216 -407 -216 -472 1 -9 31 -9 41 1 47 9 6 11 22 6 53
-8 55 15 108 72 163 87 85 216 114 303 70z m296 -3 c-3 -5 -17 -78 -31 -162
-37 -227 -63 -327 -83 -332 -9 -1 -42 -1 -72 2 l-55 5 36 40 c19 22 44 54 56
70 23 34 47 99 34 90 -5 -3 -7 4 -4 15 3 11 10 20 16 20 17 0 0 125 -26 190
-22 52 -22 60 -8 63 30 8 142 7 137 -1z m551 -11 c106 -4 194 -9 197 -12 6 -5
-15 -116 -65 -356 l-33 -152 -105 4 c-58 3 -216 10 -351 16 -135 6 -247 13
-249 15 -3 3 1 30 7 62 22 101 92 437 92 441 0 2 71 1 158 -4 86 -4 243 -10
349 -14z m823 -30 c113 -5 134 -8 132 -21 -2 -8 -24 -125 -49 -260 -25 -135
-46 -246 -48 -248 -7 -7 -703 32 -711 41 -2 1 19 113 46 247 27 135 50 249 50
254 0 8 260 3 580 -13z m-2248 -143 c-4 -4 -45 -4 -92 0 -97 8 -95 5 -63 100
l17 52 73 -72 c40 -40 69 -76 65 -80z m-2754 -153 c12 -25 22 -48 22 -50 0 -6
-77 -45 -88 -45 -10 0 29 140 39 140 3 0 15 -20 27 -45z m341 -107 c-27 -67
-29 -195 -5 -288 46 -179 164 -317 304 -353 l52 -13 -22 -20 c-27 -24 -129
-91 -152 -100 -20 -8 -117 58 -162 110 -78 90 -137 230 -150 358 -8 80 10 198
40 257 19 40 84 100 108 101 4 0 -2 -24 -13 -52z m-199 -37 c0 -5 -10 -30 -22
-57 -19 -42 -22 -67 -23 -166 0 -87 -3 -118 -12 -118 -15 0 -21 21 -32 128 -5
46 -12 86 -15 89 -3 3 -90 -41 -193 -98 -103 -57 -323 -171 -488 -254 -165
-83 -313 -159 -328 -169 -71 -47 -16 34 76 112 34 29 100 76 147 104 47 28
104 64 128 80 23 16 115 62 205 102 89 40 200 92 247 116 104 53 292 140 303
140 4 0 7 -4 7 -9z m1585 -70 c-21 -43 -29 -39 -8 4 9 19 18 33 21 31 2 -2 -4
-18 -13 -35z m2328 -10 c109 -5 201 -11 204 -15 6 -5 -9 -85 -75 -401 l-27
-130 -80 3 c-199 6 -603 36 -612 46 -9 8 29 222 68 386 l31 132 147 -7 c80 -3
235 -10 344 -14z m717 -41 c134 -6 246 -13 249 -15 2 -3 -9 -71 -24 -152 -16
-82 -38 -198 -49 -260 -12 -61 -24 -114 -26 -117 -5 -4 -440 16 -628 30 l-93
6 5 27 c3 14 15 78 27 141 11 63 31 158 44 210 12 52 26 108 29 124 l7 29 107
-6 c59 -4 217 -12 352 -17z m-5953 -652 c-3 -8 -6 -5 -6 6 -1 11 2 17 5 13 3
-3 4 -12 1 -19z m1950 -39 c32 -17 83 -46 114 -65 287 -173 885 -366 1315
-424 45 -6 95 -15 113 -20 35 -10 56 -5 83 18 16 13 18 12 29 -14 7 -16 25
-58 40 -93 32 -69 36 -91 17 -91 -39 0 -328 32 -418 45 -269 40 -715 169 -985
285 -116 50 -282 137 -395 208 -96 61 -95 54 -31 122 31 32 57 59 58 60 2 0
29 -14 60 -31z m-1927 -86 c0 -24 4 -52 9 -61 13 -26 24 -81 12 -61 -15 23
-51 164 -51 196 l0 28 15 -29 c8 -15 15 -48 15 -73z m7577 -440 c192 -133 293
-209 293 -221 0 -16 -163 -84 -340 -142 -96 -32 -195 -68 -220 -79 -25 -11
-48 -17 -52 -13 -4 4 0 36 8 72 8 36 26 135 39 220 14 85 32 190 41 233 16 71
18 76 35 65 10 -7 98 -68 196 -135z"/>
<path d="M4348 8913 c7 -3 16 -2 19 1 4 3 -2 6 -13 5 -11 0 -14 -3 -6 -6z"/>
<path d="M4238 8102 c-54 -20 -88 -48 -88 -73 0 -29 15 -31 92 -12 42 10 114
17 168 18 83 0 102 -4 154 -28 32 -15 61 -25 64 -23 12 12 -56 79 -106 103
-72 35 -210 43 -284 15z"/>
<path d="M3320 7971 c-30 -11 -62 -20 -71 -21 -9 0 -19 -7 -23 -15 -3 -8 -15
-15 -26 -15 -46 0 -12 -59 55 -93 27 -14 30 -13 40 6 11 23 62 63 70 56 2 -3
1 -19 -4 -35 -20 -72 32 -134 111 -134 35 0 50 6 70 28 15 15 30 39 33 55 4
15 10 27 14 27 4 0 23 -21 42 -47 41 -58 49 -41 19 40 -28 73 -52 103 -111
132 -69 35 -149 41 -219 16z"/>
<path d="M4280 7909 c-75 -30 -150 -114 -150 -169 0 -23 2 -22 38 13 21 20 41
37 45 37 4 0 7 -16 7 -35 0 -24 9 -44 29 -67 25 -28 33 -31 81 -30 65 1 107
35 116 94 4 21 10 38 14 38 5 0 20 -14 34 -31 l27 -31 42 16 c43 16 75 52 60
66 -4 5 -21 10 -38 12 -22 2 -29 8 -27 21 2 9 -3 17 -10 17 -7 0 -40 14 -73
30 -64 31 -144 39 -195 19z m130 -94 c13 -16 7 -45 -9 -45 -14 0 -33 38 -26
50 9 14 21 12 35 -5z"/>
<path d="M3717 7294 c-12 -12 7 -35 44 -54 54 -28 69 -26 69 8 0 21 -7 32 -25
40 -28 13 -78 16 -88 6z"/>
<path d="M3910 7268 c-23 -39 -25 -48 -6 -48 23 0 80 22 99 38 18 16 24 38 8
27 -5 -3 -12 -1 -16 5 -3 5 -19 10 -36 10 -22 0 -34 -8 -49 -32z"/>
<path d="M3445 7170 c-18 -20 -17 -21 21 -68 22 -26 59 -79 82 -119 74 -126
168 -183 301 -183 133 0 229 49 315 163 29 40 66 83 80 96 29 27 34 59 11 67
-8 4 -34 -1 -57 -11 -30 -12 -86 -18 -197 -22 -131 -5 -176 -2 -281 16 -139
24 -212 45 -230 67 -16 19 -23 18 -45 -6z m237 -120 c114 -27 225 -34 342 -21
54 6 101 9 103 7 3 -2 -15 -24 -39 -49 -99 -103 -306 -109 -442 -13 -51 37
-75 63 -76 84 0 16 15 15 112 -8z m78 -162 c0 5 19 6 43 3 23 -4 67 -4 97 -1
73 7 90 3 90 -22 0 -17 2 -18 15 -8 13 11 14 10 10 -2 -13 -32 -182 -56 -250
-36 -11 4 -22 7 -25 7 -3 1 2 6 10 12 12 9 11 10 -8 6 -12 -3 -20 -1 -16 4 3
5 15 9 27 10 l22 0 -21 9 c-12 5 -25 14 -29 20 -6 9 -2 9 14 1 11 -7 21 -8 21
-3z"/>
<path d="M3363 6502 c2 -12 6 -24 10 -28 3 -4 4 4 2 16 -6 30 -16 40 -12 12z"/>
<path d="M3729 4689 c-16 -16 -20 -28 -15 -52 8 -40 43 -77 72 -77 46 0 68 94
33 137 -17 20 -66 16 -90 -8z"/>
<path d="M3736 4337 c-12 -9 -17 -23 -14 -42 2 -25 8 -30 34 -33 37 -4 75 35
67 68 -6 24 -58 28 -87 7z m69 -7 c3 -6 -1 -7 -9 -4 -18 7 -21 14 -7 14 6 0
13 -4 16 -10z"/>
<path d="M5797 4698 c-3 -35 -9 -71 -12 -81 -6 -14 -1 -17 27 -17 41 0 52 8
37 26 -14 17 -3 49 23 74 26 24 17 50 -16 50 -13 0 -31 2 -39 5 -11 5 -15 -8
-20 -57z m57 8 c-3 -9 -10 -16 -15 -16 -14 0 -11 28 4 33 16 6 19 3 11 -17z"/>
<path d="M5930 4733 c0 -16 -3 -52 -6 -80 -6 -49 -5 -53 15 -53 16 0 21 6 21
24 0 24 16 36 50 36 11 0 22 12 29 31 14 39 14 49 1 49 -5 0 -10 -11 -10 -25
0 -20 -5 -25 -25 -25 -20 0 -25 5 -25 25 0 14 -8 29 -19 35 -28 15 -31 13 -31
-17z"/>
<path d="M8042 4743 c-5 -10 -12 -40 -15 -68 -3 -27 -9 -58 -12 -67 -6 -16 1
-18 69 -18 70 0 76 2 80 23 2 12 9 46 15 75 14 70 14 72 -7 72 -16 0 -20 -12
-28 -67 -8 -60 -12 -68 -32 -71 -48 -7 -52 2 -32 67 10 33 15 62 12 65 -12 12
-42 5 -50 -11z"/>
<path d="M8225 4703 c-4 -32 -10 -70 -15 -85 l-9 -28 65 0 c47 0 65 3 62 12
-3 7 -19 15 -37 19 -17 4 -34 9 -36 11 -3 3 2 28 11 57 17 59 18 56 -13 65
-20 6 -22 3 -28 -51z"/>
<path d="M5657 4732 c-24 -27 -21 -42 16 -73 39 -33 34 -42 -16 -27 -41 13
-56 6 -37 -17 19 -22 86 -19 110 5 30 30 25 45 -22 69 -32 17 -26 35 8 27 19
-5 24 -2 24 14 0 16 -7 20 -33 20 -20 0 -41 -8 -50 -18z"/>
<path d="M6687 4677 c-3 -39 -4 -74 -1 -78 9 -16 33 3 36 29 2 22 8 27 31 27
22 -1 27 4 27 23 0 13 4 20 10 17 13 -8 26 24 14 34 -5 5 -32 11 -60 13 l-51
5 -6 -70z m88 33 c0 -8 -10 -16 -22 -18 -18 -3 -23 2 -23 18 0 16 5 21 23 18
12 -2 22 -10 22 -18z"/>
<path d="M7097 4733 c4 -10 13 -22 20 -28 9 -8 10 -20 2 -54 -10 -47 -8 -56
14 -48 8 3 18 26 21 51 6 38 13 49 39 63 l32 17 -40 7 c-71 14 -95 11 -88 -8z"/>
<path d="M7470 4725 c0 -11 -3 -44 -6 -72 -7 -52 -6 -53 19 -53 20 0 24 4 20
19 -5 20 19 102 30 102 25 -3 37 0 37 8 0 5 -23 11 -50 13 -44 3 -50 1 -50
-17z"/>
<path d="M7909 4743 c-15 -4 -39 -42 -39 -62 0 -4 16 -15 35 -24 52 -25 45
-40 -15 -32 -41 6 -50 4 -50 -8 0 -19 21 -27 70 -27 29 0 43 6 59 26 24 30 18
50 -20 70 -40 20 -37 37 6 32 29 -3 35 -1 35 14 0 14 -7 18 -32 17 -18 -1 -40
-3 -49 -6z"/>
<path d="M6340 4707 c0 -17 -4 -48 -10 -67 -12 -41 9 -65 24 -27 5 12 18 41
28 65 21 48 17 62 -18 62 -20 0 -24 -5 -24 -33z"/>
<path d="M6520 4715 c-28 -30 -36 -31 -43 -5 -3 13 -14 20 -31 20 -19 0 -24
-4 -19 -15 3 -9 -2 -21 -12 -28 -16 -12 -16 -15 1 -50 21 -43 40 -47 56 -12
12 28 19 30 35 14 7 -7 17 3 33 36 27 56 16 78 -20 40z"/>
<path d="M6582 4733 c4 -16 -14 -89 -28 -110 -12 -19 -12 -22 5 -28 31 -10 71
5 71 26 0 14 -7 19 -25 19 -34 0 -32 24 5 50 17 12 30 28 30 36 0 9 -11 14
-30 14 -16 0 -29 -3 -28 -7z"/>
<path d="M7394 4731 c8 -12 -13 -111 -24 -111 -10 0 -20 36 -20 73 0 31 -6 33
-31 11 -19 -17 -39 -11 -39 12 0 8 -9 14 -20 14 -16 0 -20 -7 -22 -37 0 -21
-2 -50 -2 -65 -2 -38 26 -37 41 2 15 39 30 38 50 -5 14 -29 22 -35 42 -33 30
4 46 32 55 101 7 43 6 47 -14 47 -12 0 -19 -4 -16 -9z"/>
<path d="M5737 4414 c-54 -42 -58 -54 -21 -54 27 0 27 0 20 -57 -4 -32 -10
-84 -13 -115 l-6 -58 31 0 c35 0 31 -14 60 188 10 67 16 124 14 127 -13 13
-43 2 -85 -31z"/>
<path d="M6460 4432 c-44 -22 -53 -58 -17 -67 16 -4 35 -1 50 9 22 15 25 15
37 1 21 -26 -2 -59 -85 -120 -58 -43 -75 -61 -75 -81 0 -32 32 -44 120 -44 58
0 71 3 80 19 19 36 12 41 -56 41 -36 0 -63 4 -60 9 3 5 31 23 61 40 64 36 95
80 95 133 0 68 -74 98 -150 60z"/>
<path d="M7213 4435 c-35 -15 -42 -35 -18 -55 11 -9 22 -9 46 -1 36 12 49 8
49 -18 0 -23 -20 -40 -57 -50 -37 -10 -46 -51 -11 -51 13 0 32 -6 42 -13 14
-10 15 -17 6 -41 -10 -28 -11 -29 -70 -23 -55 6 -60 5 -60 -13 0 -48 97 -67
157 -30 58 35 80 107 43 133 -21 14 -21 15 10 45 82 82 -19 168 -137 117z"/>
<path d="M8055 4433 c-68 -8 -75 -12 -75 -42 0 -40 24 -59 46 -36 9 9 23 14
31 11 8 -3 19 -6 24 -6 5 0 9 -9 9 -21 0 -18 -5 -20 -47 -18 -44 3 -49 1 -61
-24 -16 -33 -9 -47 23 -47 13 0 35 -4 49 -10 34 -13 35 -54 2 -75 -23 -15 -27
-15 -50 0 -54 36 -102 -8 -55 -51 44 -39 161 -13 196 44 6 11 15 35 18 55 7
36 -11 67 -46 80 -10 3 -4 13 19 33 39 35 54 89 26 97 -35 10 -79 14 -109 10z"/>
<path d="M5684 3940 c-12 -5 -39 -30 -60 -56 -22 -26 -58 -69 -81 -96 -27 -30
-43 -58 -43 -75 l0 -26 70 5 70 5 6 -38 c10 -63 54 -51 69 19 5 25 12 32 31
32 31 0 33 36 3 45 -20 7 -21 12 -15 64 3 31 9 73 12 94 6 34 5 37 -17 36 -13
0 -34 -4 -45 -9z m-20 -127 c-8 -48 -15 -55 -48 -51 l-27 3 36 43 c20 23 39
42 41 42 3 0 2 -17 -2 -37z"/>
<path d="M7805 3865 c-22 -14 -44 -26 -49 -28 -5 -2 -6 -15 -2 -30 5 -23 10
-26 32 -21 22 6 24 4 20 -17 -8 -33 -26 -176 -26 -200 0 -15 7 -19 34 -19 l33
0 11 73 c26 170 34 238 28 252 -8 21 -35 18 -81 -10z"/>
<path d="M8015 3877 c-29 -14 -55 -52 -55 -83 0 -26 29 -27 61 0 32 28 38 29
63 20 27 -10 18 -27 -45 -89 -69 -67 -119 -131 -119 -152 0 -9 14 -13 48 -13
60 0 155 45 160 75 2 13 0 16 -5 8 -11 -16 -79 -44 -87 -36 -12 12 -5 22 50
75 111 104 141 168 88 188 -46 18 -127 21 -159 7z"/>
<path d="M5240 3555 c0 -19 91 -25 130 -8 19 8 -29 20 -87 22 -32 1 -43 -3
-43 -14z"/>
<path d="M7653 3314 c-32 -19 -43 -31 -43 -50 0 -30 21 -40 50 -24 12 6 23 10
26 8 5 -6 -25 -205 -36 -233 -8 -22 -6 -25 25 -31 48 -9 65 0 65 33 0 15 7 85
17 155 16 123 16 128 -2 148 -24 27 -51 25 -102 -6z"/>
<path d="M7890 3308 c-29 -19 -35 -30 -35 -58 0 -46 27 -51 66 -14 26 25 31
26 54 14 14 -7 25 -19 25 -25 0 -11 -83 -94 -163 -162 -25 -21 -37 -40 -37
-57 0 -25 2 -26 63 -27 125 -2 141 1 165 27 12 14 22 30 22 36 0 6 -9 8 -22 4
-45 -12 -128 -19 -128 -10 0 5 26 28 58 51 97 71 132 118 132 178 0 31 -44 55
-114 62 -42 4 -57 1 -86 -19z"/>
<path d="M5273 2846 c-32 -16 -42 -27 -43 -45 0 -24 7 -25 53 -6 23 9 22 -5
-4 -117 -18 -78 -25 -92 -50 -107 -16 -9 -29 -19 -29 -22 0 -6 110 -29 138
-29 17 0 25 39 12 55 -10 12 -8 35 8 108 34 150 36 168 21 178 -22 14 -60 8
-106 -15z"/>
<path d="M5456 2829 c-14 -11 -26 -30 -26 -41 0 -19 4 -20 70 -13 39 4 70 4
70 0 0 -11 -21 -48 -86 -147 -35 -54 -64 -100 -64 -103 0 -3 15 -5 34 -5 31 0
39 7 98 88 68 91 95 137 109 184 10 36 -4 42 -107 52 -63 5 -75 3 -98 -15z"/>
<path d="M7538 2744 c-32 -17 -50 -46 -42 -68 9 -25 36 -28 56 -6 22 23 37 25
63 7 32 -24 11 -60 -83 -139 -62 -53 -88 -82 -90 -100 l-3 -26 111 -7 c61 -4
113 -5 115 -3 3 2 8 19 11 36 l7 32 -63 0 -63 0 23 25 c12 13 40 36 62 51 46
32 68 70 68 117 0 75 -98 122 -172 81z"/>
<path d="M7786 2719 c-29 -23 -34 -50 -11 -69 13 -11 21 -9 45 8 16 12 35 22
43 22 18 0 37 -21 37 -40 0 -15 -91 -107 -163 -167 -16 -13 -27 -32 -27 -47 0
-22 5 -26 43 -31 23 -3 76 -5 117 -3 69 3 75 5 78 25 3 20 -3 23 -50 30 -29 4
-59 6 -65 5 -29 -6 -9 16 54 58 36 25 74 59 85 75 33 55 17 115 -39 144 -37
19 -117 14 -147 -10z"/>
<path d="M5123 2290 c-34 -20 -39 -34 -23 -60 8 -12 14 -12 45 3 29 14 40 15
51 6 23 -19 16 -55 -15 -81 -16 -12 -57 -45 -90 -73 -53 -42 -83 -86 -70 -100
2 -2 52 -7 111 -10 l106 -8 16 32 17 31 -53 0 c-29 0 -59 4 -66 8 -14 10 -4
20 65 66 54 36 74 68 75 119 0 32 -5 46 -26 64 -35 29 -98 31 -143 3z"/>
<path d="M5359 2271 c-19 -20 -29 -40 -29 -60 0 -41 29 -41 59 0 17 23 29 29
49 27 51 -6 39 -35 -51 -127 -48 -47 -90 -98 -96 -112 -9 -25 -8 -27 27 -33
20 -3 69 -6 108 -6 56 0 73 3 78 16 12 30 5 34 -59 34 -36 0 -65 4 -65 8 0 4
23 26 52 47 97 74 118 101 118 150 0 60 -31 85 -107 85 -47 0 -59 -4 -84 -29z"/>
<path d="M5886 2249 c-28 -22 -34 -50 -13 -67 8 -7 18 -6 31 4 28 20 63 17 76
-5 15 -29 4 -47 -64 -96 -113 -82 -116 -85 -116 -115 0 -33 5 -34 143 -45 72
-5 77 -5 79 15 0 11 1 26 2 33 1 8 -21 14 -64 17 l-65 5 65 49 c88 66 100 81
100 128 0 58 -42 98 -103 98 -30 0 -53 -7 -71 -21z"/>
<path d="M6125 2234 c-9 -9 -15 -28 -13 -43 2 -21 8 -25 28 -23 14 2 35 8 47
14 23 11 53 -2 53 -25 0 -5 -40 -51 -90 -101 -56 -57 -90 -100 -90 -113 0 -24
13 -28 129 -39 57 -5 75 -3 82 7 17 27 9 39 -25 39 -18 0 -48 3 -66 6 l-32 7
80 76 c62 59 82 85 87 113 13 69 -23 98 -120 98 -36 0 -59 -5 -70 -16z"/>
<path d="M6654 2210 c-12 -5 -29 -18 -37 -30 -29 -41 6 -72 49 -43 20 13 30
14 49 5 51 -24 27 -63 -102 -165 -70 -56 -85 -78 -62 -92 5 -4 54 -11 107 -16
85 -7 99 -6 110 8 24 33 15 43 -42 43 -30 0 -57 4 -61 9 -3 5 22 31 55 56 70
54 86 75 95 127 7 34 4 41 -28 73 -28 28 -42 35 -73 34 -22 0 -49 -4 -60 -9z"/>
<path d="M6915 2189 c-87 -51 -88 -102 -1 -162 14 -10 26 -23 26 -30 0 -13
-79 -67 -98 -67 -16 0 -33 -36 -26 -54 8 -21 24 -25 121 -33 89 -6 102 -1 103
40 0 13 -9 17 -37 18 -53 2 -96 12 -100 24 -2 6 26 25 63 43 59 29 68 38 90
86 28 62 25 98 -10 122 -31 19 -107 27 -131 13z m76 -68 c20 -16 22 -22 11
-45 -12 -27 -50 -43 -78 -32 -19 7 -12 51 13 79 20 21 25 21 54 -2z"/>
<path d="M7401 2144 c-54 -45 -32 -93 28 -58 28 16 31 16 55 0 14 -9 26 -23
26 -31 0 -22 -55 -80 -115 -119 -71 -48 -85 -63 -85 -91 0 -27 11 -30 145 -40
l81 -5 11 29 c6 17 8 32 5 35 -3 3 -30 6 -61 6 l-56 0 72 68 c54 52 73 77 78
105 18 96 -108 166 -184 101z"/>
<path d="M7688 2134 c-59 -31 -66 -103 -16 -160 l32 -36 -31 -27 c-17 -14 -43
-34 -57 -44 -44 -30 -34 -54 27 -66 125 -23 144 -23 166 6 12 14 21 30 21 34
0 5 -24 9 -54 9 -96 0 -110 17 -43 51 67 35 103 66 122 109 15 34 16 44 5 70
-26 63 -108 89 -172 54z m80 -66 c18 -18 14 -49 -10 -75 -47 -50 -85 -10 -58
61 10 28 47 35 68 14z"/>
<path d="M6352 3907 c-35 -37 -75 -146 -76 -205 -1 -48 2 -56 29 -78 32 -26
91 -32 126 -13 31 16 79 89 79 119 0 41 -44 80 -91 80 -45 0 -53 9 -33 38 19
28 54 29 61 2 10 -37 52 -14 67 37 6 19 2 25 -19 33 -14 5 -48 10 -74 10 -37
0 -52 -5 -69 -23z m66 -167 c19 0 11 -60 -9 -73 -46 -29 -106 38 -63 70 10 8
28 12 39 9 11 -3 26 -6 33 -6z"/>
<path d="M7127 3903 c-22 -26 -77 -144 -77 -168 0 -21 20 -59 20 -39 0 7 18
19 40 28 73 29 110 17 110 -37 0 -23 -7 -31 -37 -43 -22 -10 -49 -13 -70 -9
-25 4 -33 2 -33 -9 0 -41 93 -60 150 -31 33 17 70 81 70 120 0 16 -12 39 -30
57 -26 25 -37 29 -70 26 -43 -4 -49 5 -26 37 10 15 25 19 57 18 47 -2 69 10
69 37 0 24 -20 30 -94 30 -47 0 -67 -4 -79 -17z"/>
<path d="M7047 3659 c-12 -43 -8 -55 9 -31 10 15 12 27 6 38 -8 14 -10 13 -15
-7z"/>
<path d="M5487 3371 c-68 -37 -79 -90 -15 -76 26 6 29 5 24 -11 -7 -24 -36
-207 -33 -210 1 -1 16 -5 34 -9 28 -6 33 -4 37 17 6 31 46 256 51 291 4 24 2
27 -23 26 -15 -1 -48 -13 -75 -28z"/>
<path d="M6186 3381 c-3 -5 -21 -16 -41 -25 -26 -13 -35 -23 -35 -41 0 -19 5
-25 23 -25 l22 0 -11 -117 c-6 -65 -10 -119 -9 -120 1 -2 15 -5 31 -9 l30 -6
17 94 c9 51 19 130 23 176 l7 82 -26 0 c-14 0 -28 -4 -31 -9z"/>
<path d="M6344 3361 c-35 -22 -54 -65 -54 -125 0 -23 -7 -54 -15 -70 -8 -15
-15 -38 -15 -50 0 -57 104 -95 167 -62 35 18 73 73 73 106 0 12 -10 40 -22 61
l-22 39 22 23 c32 34 32 68 2 84 -36 19 -100 16 -136 -6z m94 -73 c3 -27 1
-28 -37 -28 -45 0 -51 12 -24 42 24 27 57 19 61 -14z m-12 -112 c3 -8 0 -27
-8 -43 -18 -38 -66 -39 -87 -2 -23 41 -9 59 44 59 30 0 47 -5 51 -14z"/>
<path d="M6905 3346 c-29 -17 -40 -29 -40 -47 0 -20 4 -24 28 -22 25 2 28 -1
23 -20 -7 -29 -36 -208 -36 -224 0 -8 15 -13 40 -13 25 0 40 5 40 13 0 6 9 82
20 167 11 85 20 158 20 163 0 15 -56 5 -95 -17z"/>
<path d="M7115 3341 c-68 -42 -91 -96 -54 -130 13 -11 25 -21 29 -21 3 0 12
19 20 41 19 53 48 75 75 56 27 -20 12 -63 -30 -89 -37 -21 -37 -34 1 -48 26
-10 32 -38 12 -58 -7 -7 -38 -12 -70 -12 -45 0 -60 -4 -65 -16 -10 -28 25 -44
95 -44 57 0 67 3 93 29 26 26 29 36 29 93 0 35 7 83 16 107 13 39 13 46 -1 67
-13 21 -68 44 -105 44 -8 0 -28 -8 -45 -19z"/>
<path d="M6030 2818 c-35 -18 -45 -28 -45 -48 0 -26 14 -30 64 -14 24 7 24 6
18 -41 -4 -28 -26 -83 -52 -131 l-45 -83 33 -5 c17 -3 48 -7 67 -8 l35 -3 -3
47 c-2 28 4 76 16 115 11 38 23 87 26 110 5 37 3 44 -20 62 -33 26 -40 26 -94
-1z"/>
<path d="M6270 2817 c-42 -11 -70 -34 -70 -58 0 -30 21 -33 65 -9 23 13 50 20
59 17 35 -14 16 -49 -80 -148 -82 -85 -94 -101 -85 -118 9 -15 26 -21 83 -26
103 -10 132 -5 136 22 3 23 -11 28 -93 35 l-30 3 72 74 c77 79 99 117 89 156
-11 42 -84 68 -146 52z"/>
<path d="M6753 2780 c-24 -14 -33 -27 -33 -46 0 -24 3 -26 28 -20 83 19 92 19
98 1 10 -26 -23 -82 -70 -117 -63 -48 -116 -101 -116 -115 0 -23 39 -33 134
-33 95 0 96 0 96 24 0 22 -5 25 -62 31 l-62 7 24 20 c57 45 131 123 136 145 9
34 -4 72 -33 99 -33 30 -94 32 -140 4z"/>
<path d="M7006 2759 c-17 -14 -26 -30 -26 -49 0 -39 14 -45 49 -19 34 25 65
22 69 -8 3 -17 -19 -43 -88 -109 -122 -117 -121 -127 15 -136 103 -6 119 -2
128 32 4 17 0 20 -26 20 -18 0 -49 3 -69 6 l-37 6 58 43 c106 78 130 147 72
206 -37 37 -104 41 -145 8z"/>
</g>
</svg>
